<?xml version='1.0' encoding='utf-8'?>
<svg xmlns:xlink="http://www.w3.org/1999/xlink" xmlns="http://www.w3.org/2000/svg" viewBox="0 0 511.86 491.43"> <defs> <linearGradient id="d" x1="369.59" x2="357.38" y1="1010.9" y2="960.08" gradientUnits="userSpaceOnUse"> <stop stop-color="#803300" offset="0"/> <stop stop-color="#a40" stop-opacity="0" offset="1"/> </linearGradient> <linearGradient id="a"> <stop stop-color="#f00" offset="0"/> <stop stop-color="#f00" stop-opacity="0" offset="1"/> </linearGradient> <linearGradient id="f" x1="404.26" x2="371.54" y1="970.58" y2="925.1" gradientUnits="userSpaceOnUse"> <stop stop-color="#2b1100" offset="0"/> <stop stop-color="#2b1100" stop-opacity="0" offset="1"/> </linearGradient> <linearGradient id="e" x1="331.89" x2="369.59" y1="892.58" y2="936.46" gradientUnits="userSpaceOnUse" xlink:href="#a"/> <linearGradient id="g" x1="354.38" x2="371.54" y1="885.86" y2="925.1" gradientUnits="userSpaceOnUse" xlink:href="#a"/> <radialGradient id="b" cx="-19672" cy="120.5" r="28.705" gradientTransform="matrix(-18.641 -27.657 1.9096 -1.2871 -366820 -543260)" gradientUnits="userSpaceOnUse"> <stop stop-color="#ffefb5" offset="0"/> <stop stop-color="#ffefb5" stop-opacity="0" offset="1"/> </radialGradient> <radialGradient id="c" cx="-19639" cy="77.422" r="53.22" gradientTransform="matrix(-4.8085 -4.0412 1.3289 -1.5812 -94191 -78574)" gradientUnits="userSpaceOnUse"> <stop stop-color="#734e21" offset="0"/> <stop stop-color="#734e21" stop-opacity="0" offset="1"/> </radialGradient> </defs> <g transform="translate(-91.016 -519.5)"> <path d="m567.05 798.4c22.998 2.1239 6.7024 9.8616 4.2056 15.627-69.742 40.345-177.7 89.914-268.07 135.24-13.222 1.7999-23.242-2.8018-30.055-13.824l-169.8-298.43c-7.8065-22.374-24.252-44.171 2.1028-68.821 70.641-16.375 79.729-34.443 227.8-48.687 87.553 60.609 178.3 135.04 268.07 205.26 3.9837 8.8751 0.11096 11.85-8.7109 11.119-12.19 17.728-23.597 36.118-25.544 62.511z" fill="#513622"/> <path d="m567.05 798.4c22.998 2.1239 6.7024 9.8616 4.2056 15.627-69.742 40.345-177.7 89.914-268.07 135.24-13.222 1.7999-23.242-2.8018-30.055-13.824l-169.8-298.43c-7.8065-22.374-24.252-44.171 2.1028-68.821 70.641-16.375 79.729-34.443 227.8-48.687 87.553 60.609 178.3 135.04 268.07 205.26 3.9837 8.8751 0.11096 11.85-8.7109 11.119-12.19 17.728-23.597 36.118-25.544 62.511z" fill="url(#c)" opacity=".63478"/> <path d="m570.66 806.81-274.09 133.44c-13.383-1.2483-15.219-47.912 23.442-64.915l272.88-139.45c-25.256 43.464-25.434 59.072-22.238 70.925z" fill="#634218"/> <path d="m363.29 848.89-45.679 27.048c-15.041 7.6783-24.396 15.831-25.844 24.643-0.56592 9.7451-0.85998 18.948-3.6064 33.059 6.5137 6.0809 14.132 3.38 21.749 0.60477l52.493-26.776 4.6717 9.775-63.112 31.664c-14.709 5.14-21.422-0.72292-27.198-7.863l-171.83-298.62c-26.588-50.729-8.4945-65.067 0.38838-74.231l31.981-10.819 226.01 291.52z" fill="#bd8431"/> <path d="m363.29 848.89-45.679 27.048c-15.041 7.6783-24.396 15.831-25.844 24.643-0.56592 9.7451-0.85998 18.948-3.6064 33.059 6.5137 6.0809 14.132 3.38 21.749 0.60477l52.493-26.776 4.6717 9.775-63.112 31.664c-14.709 5.14-21.422-0.72292-27.198-7.863l-171.83-298.62c-26.588-50.729-8.4945-65.067 0.38838-74.231l31.981-10.819 226.01 291.52z" fill="url(#b)"/> <path d="m338.81 888.34c21.749 23.342 12.711 44.027 40.375 82.241 0 0 6.8078-8.9256 9.3545-8.9256s15.724 0.84996 15.724 0.84996c-37.473-48.052-9.0826-44.574-48.026-82.877l-17.427 8.7125z" fill="#c63900"/> <path d="m338.81 888.34c21.749 23.342 12.711 44.027 40.375 82.241 0 0 6.8078-8.9256 9.3545-8.9256s15.724 0.84996 15.724 0.84996c-37.473-48.052-9.0826-44.574-48.026-82.877l-17.427 8.7125z" fill="url(#g)" opacity=".54783"/> <path d="m338.81 888.34c21.749 23.342 12.711 44.027 40.375 82.241 0 0 6.8078-8.9256 9.3545-8.9256s15.724 0.84996 15.724 0.84996c-37.473-48.052-9.0826-44.574-48.026-82.877l-17.427 8.7125z" fill="url(#f)" opacity=".54783"/> <path d="m322.33 896.56c37.473 28.442 8.9661 68.309 32.574 108.03 0 0 2.2082-7.9552 4.7549-7.9552s6.9964 14.3 6.9964 14.3c4.0114-24.375 9.643-105.67-26.898-123.08l-17.427 8.7131z" fill="#d45500"/> <path d="m322.33 896.56c37.473 28.442 8.9661 68.309 32.574 108.03 0 0 2.2082-7.9552 4.7549-7.9552s6.9964 14.3 6.9964 14.3c4.0114-24.375 9.643-105.67-26.898-123.08l-17.427 8.7131z" fill="url(#e)" opacity=".66522"/> <path d="m322.33 896.56c37.473 28.442 8.9661 68.309 32.574 108.03 0 0 2.2082-7.9552 4.7549-7.9552s6.9964 14.3 6.9964 14.3c4.0114-24.375 9.643-105.67-26.898-123.08l-17.427 8.7131z" fill="url(#d)" opacity=".66522"/> </g> </svg>