<?xml version='1.0' encoding='utf-8'?>
<svg xmlns:xlink="http://www.w3.org/1999/xlink" xmlns="http://www.w3.org/2000/svg" viewBox="0 0 1698.4 927.95"> <defs> <filter id="v"> <feGaussianBlur stdDeviation="2.11626"/> </filter> <filter id="u"> <feGaussianBlur stdDeviation="1.83567"/> </filter> <filter id="t"> <feGaussianBlur stdDeviation="12.53031"/> </filter> <linearGradient id="b"> <stop offset="0"/> <stop stop-opacity="0" offset="1"/> </linearGradient> <linearGradient id="a"> <stop stop-color="#fff" offset="0"/> <stop stop-color="#fff" stop-opacity="0" offset="1"/> </linearGradient> <linearGradient id="m" x1="2113.4" x2="2057.2" y1="142.25" y2="48.909" gradientUnits="userSpaceOnUse"> <stop stop-color="#808080" offset="0"/> <stop stop-color="#808080" stop-opacity="0" offset="1"/> </linearGradient> <linearGradient id="s" x1="625.03" x2="1041.3" y1="580.81" y2="592.24" gradientUnits="userSpaceOnUse" xlink:href="#b"/> <linearGradient id="r" x1="1565.3" x2="1605.5" y1="340.17" y2="314.49" gradientUnits="userSpaceOnUse" xlink:href="#a"/> <linearGradient id="q" x1="1550" x2="1584" y1="286.21" y2="324.13" gradientUnits="userSpaceOnUse" xlink:href="#a"/> <linearGradient id="p" x1="1527.4" x2="1600.1" y1="193.46" y2="292.69" gradientUnits="userSpaceOnUse" xlink:href="#a"/> <linearGradient id="o" x1="224.59" x2="114.59" y1="303.52" y2="174.17" gradientTransform="matrix(1.0144 0 0 1.0624 1368.5 -11.687)" gradientUnits="userSpaceOnUse" xlink:href="#a"/> <linearGradient id="n" x1="1558.3" x2="1524.1" y1="253.49" y2="214.07" gradientUnits="userSpaceOnUse" xlink:href="#a"/> <linearGradient id="l" x1="1338.6" x2="1330.6" y1="485.84" y2="468.34" gradientUnits="userSpaceOnUse" xlink:href="#a"/> <linearGradient id="k" x1="1337.5" x2="1348.7" y1="443.68" y2="468.9" gradientUnits="userSpaceOnUse" xlink:href="#a"/> <linearGradient id="j" x1="1585.9" x2="1562.9" y1="355.41" y2="276.16" gradientUnits="userSpaceOnUse" xlink:href="#a"/> <linearGradient id="i" x1="1859.1" x2="1893.5" y1="262.9" y2="224.69" gradientTransform="matrix(.76873 0 0 1.0523 446.32 -13.569)" gradientUnits="userSpaceOnUse" xlink:href="#a"/> <linearGradient id="h" x1="1887.4" x2="1900.9" y1="241.34" y2="184.84" gradientUnits="userSpaceOnUse" xlink:href="#a"/> <linearGradient id="g" x1="949.66" x2="431.35" y1="583.43" y2="786.85" gradientUnits="userSpaceOnUse" xlink:href="#b"/> <radialGradient id="f" cx="-157.56" cy="-1044.4" r="806.7" gradientTransform="matrix(2.4009 -1.1316 .02913 .0618 1394.5 392.85)" gradientUnits="userSpaceOnUse" xlink:href="#a"/> <radialGradient id="e" cx="-506.92" cy="549.27" r="126.06" gradientTransform="matrix(2.123 -.86849 .15094 .36897 1844.2 -76.734)" gradientUnits="userSpaceOnUse" xlink:href="#a"/> <radialGradient id="d" cx="-39.333" cy="24365" r="806.7" gradientTransform="matrix(1.725 -.8401 .01765 .03624 693.81 -288.36)" gradientUnits="userSpaceOnUse" xlink:href="#a"/> <radialGradient id="c" cx="800.71" cy="611.15" r="29.451" gradientTransform="matrix(2.7028 -1.6362 .32655 .53943 -1545.6 1577.7)" gradientUnits="userSpaceOnUse" xlink:href="#a"/> </defs> <g transform="translate(-747.05 198.75)" fill-rule="evenodd"> <path d="m2363.1-168.64c-8.7117 0.4006-15.838 3.8451-24.931 6.4383-15.315 4.3676-89.825 27.424-171.67 62.761s-338.54 164.07-318.01 155.8-249.69 124.29-286.69 142.51-48.003 23.509-48.723 25.293-5.7331 2.8995-32.222 16.346-226.13 115.96-285.87 145.77-137.2 70.095-161.43 82.736-72.405 39.69-107.69 66.963c-32.542 29.753-81.84 62.029-108.07 96.259-1.1658 4.5716 1.7708 12.591 1.5829 15.626l0.0996 0.27919c-3.8388 3.2195-29.465 21.359-38.196 30.851-8.0763 8.7804-5.5364 24.359 18.347 19.051 10.536-2.3415 33.23-10.058 35.558-10.853l0.1981 0.4959c4.018-1.0959 4.1005 2.4606 5.6476 3.9432s4.6538 5.4309 7.184 5.6296 31.515-3.1984 51.89-7.1684 86.456-20.025 149.35-43.845 156.38-71.004 161.62-73.894l5.0121-2.4197c1.8225 2.4019 5.7861 4.0123 8.0441 4.9237 1.5605 0.62984 2.5641 1.6398 5.8404 1.251 0.4681-0.0555 0.9877-0.13326 1.5575-0.25195 4.5581-0.94954 12.63-4.0986 28.498-12.14 31.737-16.084 224.81-107.08 230.27-111.49s11.63-11.376 12.071-14.416c0.1541-1.0634 0.5779-3.4352 0.8077-6.1123l74.472-35.874c1.2248-1.7942 0.6968-2.784 3.1948-4.1002s109.22-53.137 135.44-67.335c58.277-34.046 118.56-67.362 178.73-99.701-0.6503 0.76341-1.1637 1.4926-1.5162 2.189-2.7425 5.4167-6.2086 9.7772-7.4695 17.663s-0.4556 12.164 0.2966 13.934c-11.429 11.234 11.371 8.7428 17.999 7.1186 148.39-50.702 271.83-119.43 394.03-218.81 23.103-22.282 33.271-46.768 34.532-54.654 0.1829-1.144 0.3076-2.4184 0.3888-3.7591 23.354-27.558 47.642-51.306 73.664-76.773 8.1599-8.2568 9.626-22.913 7.692-30.702s-9.1079-35.434-30.274-44.835c-8.5984-3.819-15.301-4.9789-21.261-4.7048zm-109.14 204.71c-0.2774 6.4509-1.7386 12.846-5.8702 16.441-91.92 68.552-195.53 118.02-300.54 162.87-8.5163 2.6818-13.264-2.5933-26.118-2.3197-2.0467 0.0436-4.065 0.32378-6.0484 0.72264 119.96-64.073 238.44-124.06 338.58-177.71zm-1424.2 637.55 3.6968 9.2047c-0.8125-1.5861-1.7518-3.6463-2.6989-6.3815-0.2831-0.8178-0.6229-1.8124-0.9979-2.8232z" fill="url(#g)" filter="url(#t)" opacity=".80707"/> <path d="m801.08 581.88c-1.2627 4.5457 1.5152 12.627 1.2627 15.657l15.152 40.154c4.0406-1.0102 4.0406 2.5254 5.5558 4.0406s4.5457 5.5558 7.0711 5.8084 31.567-2.5254 52.023-6.0609 86.873-18.183 150.26-40.659 157.84-67.68 163.14-70.458l370.24-168.68c1.2627-1.7678 0.7576-2.7779 3.283-4.0406s110.34-50.78 136.85-64.418c213.3-118.6 452.74-227.33 617.16-314.96 26.052-30.5 53.027-55.75 82.123-83.036 8.3337-8.0812 10.102-22.728 8.3337-30.557s-8.3337-35.608-29.294-45.457-30.81-3.283-46.214 0.75762-90.408 25.506-172.99 59.094-341.94 156.83-321.23 149-252.29 118.95-289.66 136.37-48.487 22.476-49.245 24.244-5.8084 2.7779-32.577 15.657-228.55 111.12-288.9 139.65-138.64 67.175-163.14 79.297-73.236 38.133-109.1 64.65c-33.168 29.054-83.154 60.279-110.11 93.944z" fill="#777"/> <path d="m802.98 597.29c0.5051 3.283 7.5762 21.213 10.102 29.042s5.0507 10.607 5.0507 10.607-25.472 8.1248-36.618 10.354c-23.991 4.7982-26.191-10.839-17.93-19.445 9.7925-10.202 40.207-30.418 39.396-30.557z" fill="#d5d4d3"/> <path d="m2248-3.7092s6.0715 27.5-4.6428 36.429c-93.358 66.58-197.99 113.82-303.93 156.43-8.5714 2.5-13.214-2.8572-26.071-2.8572s-25.357 7.8572-28.214 13.214-6.4286 9.6429-7.8571 17.5-0.7143 12.143 0 13.929c-11.666 10.989 11.196 8.9828 17.857 7.5 149.43-47.532 274.29-113.6 398.57-210.36 23.572-21.786 34.286-46.071 35.714-53.929s0.3572-21.786-0.7143-23.214-3.2143 0-7.8571 0.71429-13.571 10.357-33.929 22.143-40 22.5-38.929 22.5z"/> <path d="m818.25 565.22c-1.5152 0.50507-15.91 12.122-17.173 16.668s1.5152 12.627 1.2627 15.657l15.152 40.154c4.0406-1.0102 4.0406 2.5254 5.5558 4.0406s4.5457 5.5558 7.0711 5.8084 31.567-2.5254 52.023-6.0609 86.873-18.183 150.26-40.659 157.84-67.68 163.14-70.458l370.99-168.93c1.2627-1.7678 0.7576-2.7779 3.283-4.0406s109.59-50.53 136.1-64.168c213.3-118.6 452.74-227.33 617.16-314.96 26.052-30.5 53.027-55.75 82.123-83.036 8.3337-8.0812 10.102-22.728 8.3337-30.557s-8.3337-35.608-29.294-45.457-30.81-3.283-46.214 0.75762-90.408 25.506-172.99 59.094-341.94 156.83-321.23 149-252.29 118.95-289.66 136.37-48.487 22.476-49.245 24.244-5.8084 2.7779-32.577 15.657-228.55 111.12-288.9 139.65-138.64 67.175-163.14 79.297-73.236 38.133-109.1 64.65-52.78 43.437-69.7 57.326-23.486 20.708-23.234 19.951z" fill="url(#f)" opacity=".78533"/> <path d="m1471.4 385.66c-3.5355 2.7779-226.78 109.1-239.91 114.4s-27.779 17.678-31.062 22.981 4.5457 8.5863 8.0812 10.102 4.0406 5.0508 36.113-10.354 227.03-102.28 232.59-106.57 11.869-11.112 12.374-14.142c0.5051-3.0305 3.5356-16.668-2.7779-17.93s-16.162 1.2627-15.405 1.5152z"/> <path d="m818.25 565.22c-1.5152 0.50507-15.91 12.122-17.173 16.668s1.5152 12.627 1.2627 15.657l15.152 40.154c4.0406-1.0102 4.0406 2.5254 5.5558 4.0406s4.5457 5.5558 7.0711 5.8084 31.567-2.5254 52.023-6.0609c1831.4-501.66 1596.3-1237.3 29.042-153.54-35.86 26.516-52.78 43.437-69.7 57.326s-23.486 20.708-23.234 19.951z" fill="url(#s)" opacity=".78533"/> <path d="m857.32 540.22c-31.428 30.714-37.089 29.348-48.7 42.029-6.4272 7.0187-5.8482 17.116 2.8638 18.4 45.099 6.6437 244.86-108.02 241.26-122-10-15.714-28.643-41.286-51.5-31.286-52.779 28.203-95.678 55.144-143.93 92.857z" fill="url(#e)" filter="url(#v)" opacity=".48913"/> <path d="m1487.9 197.77s25.001 18.183 31.062 29.042 19.433 25.756 32.565 61.364c9.8067 26.591 14.464 52.806 16.13 65.83 0.565 4.4162 0.099 3.4027 0.099 3.9783 0 2.2728 26.263-13.722 24.591-12.56-1.3434 0.93356 2.7511 0.0863 2.4822-4.2062-0.7533-12.023-4.3576-36.49-9.1961-50.261-6.566-18.688-21.971-62.124-40.659-81.317s-37.628-23.234-37.628-23.234l-19.445 11.364z" fill="#4d4d4d"/> <path d="m1565.3 327.91 22.986-13.421-2.314 18.204c-9.5481 6.1668-9.9728 9.063-20.364 13.421l-0.3085-18.204z" fill="url(#r)" opacity=".79891"/> <path d="m1589.3065,315.73718c-.375,1-1.25,12.5.25,13.75s3.25,2.375 3.125-1.125 .375-11.5-.75-12.25-2.375-.375-2.625-.375z" fill="#fff" opacity=".58696"/> <path d="m1581.2 285.36s2.875 7.375 3.875 12.5 0.375 6.875 2 9.5 3 2.125 1.875-0.625-2.375-14-4.375-18.125-3.375-3.25-3.375-3.25z" fill="#fff" opacity=".58696"/> <path d="m1554.3 280.86s-1.264 13.114 0 14.694 2.212-1.896 7.742 5.846 10.428 11.218 12.008 13.746 1.422 4.108-0.158-2.212-0.79-9.164-8.374-20.698-9.1641-13.588-10.27-13.114-0.79 2.37-0.948 1.738z" fill="url(#q)"/> <path d="m1523.2 193.49c0.875 0.875 17.125 12.375 22.375 22.125s14.875 24.125 16.5 27.625 5.75 6.75 5.5 5.625-2.375-11-11-23-15.375-20.625-23.375-26.875-10-5.5-10-5.5z" fill="url(#p)" opacity=".92391"/> <path d="m1500.8377,207.71875c-.4081.0362-.7529.31769-.87.71036s.017.81704.3388,1.07089c0,0 17.1229,14.18682 27.5,32.59375 5.0758,9.76765 11.4001,18.85666 14.8125,29.09375 .084.37606.3765.67043.752.75674s.7673-.0508 1.007-.35244 .2849-.71421.116-1.06055c-3.5333-10.59981-9.9424-19.76273-14.9375-29.375v-.0312c-10.6229-18.84307-28-33.15625-28-33.15625-.1973-.17479-.4556-.26463-.7188-.25z" fill="#fff" opacity=".38315"/> <path d="m1566 260.39s-0.634 2.6559-0.8876 3.3199-2.6628-0.79678-3.9307-0.66399-0.3804-2.5232-4.438 1.4608-4.4379 5.9759-4.4379 5.9759-2.7004-2.7273-2.536-1.7264c0.9856 6-2.0288 1.328-2.0288 1.328s-0.8876-2.9215-2.7896-5.3119-20.18-32.662-27.534-42.887-12.807-14.209-18.132-18.193-10.524-6.7727-10.524-6.7727l17.118-9.5614s12.934 4.7807 21.175 11.819 14.962 12.616 19.146 20.451 20.56 35.318 20.56 37.044-0.8876 3.8511-0.7608 3.7183z" fill="url(#o)" opacity=".89674"/> <path d="m1562.6 255.49s-0.625 2.5-0.875 3.125-2.625-0.75-3.875-0.625-0.375-2.375-4.375 1.375-4.375 5.625-4.375 5.625-3.0547-2.457-2.5-1.625c6 9-2 1.25-2 1.25s-0.875-2.75-2.75-5-10.429-20.347-17.679-29.972l16.354-14.853c6.2532-5.6791 22.825 35.575 22.825 37.2s-0.875 3.625-0.75 3.5z" fill="url(#n)"/> <path d="m2248-3.7092s6.0715 27.5-4.6428 36.429c-93.358 66.58-197.99 113.82-303.93 156.43-8.5714 2.5-13.214-2.8572-26.071-2.8572s-25.357 7.8572-28.214 13.214-6.4286 9.6429-7.8571 17.5-0.7143 12.143 0 13.929c191.03-47.57 441.27-207.67 445.07-257.14 0.6112-7.9438 2.125-18.604 1.0535-20.032s-1.093-0.70711-5.7358 0.0072-10.389 8.2358-30.747 20.022-40 22.5-38.929 22.5z" fill="url(#m)" filter="url(#u)" opacity=".7337"/> <path d="m1208.6 533.14c3.5355 1.5152 4.0406 5.0508 36.113-10.354s227.03-102.28 232.59-106.57 11.869-11.112 12.374-14.142l-281.07 131.07z" fill="url(#l)" opacity=".72554"/> <path d="m1471.4 385.66c-3.5355 2.7779-226.78 109.1-239.91 114.4s-27.779 17.678-31.062 22.981-1.8183 0.80812 1.7172 2.3234l284.61-133.9c0.5051-3.0305 6.364-6.0609 0.051-7.3236s-16.162 1.2627-15.405 1.5152z" fill="url(#k)" opacity=".38587"/> <path d="m1550.2 287.93c10.548 28.6 15.719 55.086 17.346 66.221 0.3987 2.7284 0.1452 2.0788 0.3952 2.4011 1.393 1.7959 24.553-9.7958 24.359-11.823-0.2453-2.5631 2.7101 1.0504 2.4896-2.8716-0.6618-11.776-4.3084-36.879-9.2339-50.898-90.512-113.22-90.439-138.55-35.355-3.0305z" fill="url(#j)" opacity=".3125"/> <path d="m801.08 581.88c-1.2627 4.5457 1.5152 12.627 1.2627 15.657l15.152 40.154c4.0406-1.0102 4.0406 2.5254 5.5558 4.0406s4.5457 5.5558 7.0711 5.8084 31.567-2.5254 52.023-6.0609 86.873-18.183 150.26-40.659 157.84-67.68 163.14-70.458l370.99-168.93c1.2627-1.7678 1.6415-3.3082 4.1669-4.5709s108.7-50 135.22-63.637c213.3-118.6 452.74-227.33 617.16-314.96 26.052-30.5 53.027-55.75 82.123-83.036 8.3337-8.0812 10.102-22.728 8.3337-30.557s-8.3337-35.608-29.294-45.457-30.81-3.283-46.214 0.75762-90.408 25.506-172.99 59.094-341.94 156.83-321.23 149-252.29 118.95-289.66 136.37-48.487 22.476-49.245 24.244-5.8084 2.7779-32.577 15.657-228.55 111.12-288.9 139.65-138.64 67.175-163.14 79.297-73.236 38.133-109.1 64.65-52.78 43.437-69.7 57.326c-11.668 13.442-30.905 21.283-40.406 36.618z" fill="url(#d)"/> <path d="m802.98 597.29c0.5051 3.283 7.5762 21.213 10.102 29.042s5.0507 10.607 5.0507 10.607-25.472 8.1248-36.618 10.354c-23.991 4.7982-26.191-10.839-17.93-19.445 9.7925-10.202 40.207-30.418 39.396-30.557z" fill="url(#c)"/> <path d="m1906.5 220.87s-19.507 3.7457-18.869 9.8191c0.6474 6.1534-1.1121 8.2779 10.347 7.0051 7.0901-0.78753 12.165-20.317 7.973-15.562-4.02 4.5599-1.3542-8.3309 0.5483-1.262z" fill="url(#i)"/> <path d="m1893.5 191.86s-5.3434 8.1216-6 16c-0.5822 6.9863 3.1663 14.694 13 11 6.2971-2.3657 9.5-16.5 2-12.5s-13.5 12-11.5 2.5 2.5-15 2.5-17z" fill="url(#h)" opacity=".75543"/> </g> </svg>