<?xml version='1.0' encoding='utf-8'?>
<svg xmlns="http://www.w3.org/2000/svg" viewBox="0 0 640 480"> <defs> <linearGradient id="b" x1="13.753" x2="13.712" y1="4.4452" y2="4.4452" gradientTransform="matrix(2.5111 0 0 2.5111 -4464.8 -1730.2)"> <stop stop-color="#a28650" offset="0"/> <stop stop-color="#dac491" offset="1"/> </linearGradient> <linearGradient id="a" x1="9.6536" x2="9.91" y1="11.585" y2="11.585" gradientTransform="matrix(2.5111 0 0 2.5111 -4464.8 -1730.2)"> <stop stop-color="#dccb94" offset="0"/> <stop stop-color="#c4a95a" offset="1"/> </linearGradient> <linearGradient id="c" x1="31.83" x2="32.212" y1="3.9599" y2="3.9599" gradientTransform="matrix(2.5111 0 0 2.5111 -4465.6 -1731)"> <stop stop-color="#bb9652" offset="0"/> <stop stop-color="#d4bf8a" offset="1"/> </linearGradient> </defs> <g fill-rule="evenodd"> <g stroke-linejoin="round"> <path d="m273.29 96.993 76.291 32.458v112.91l-76.291-56.301v-89.07z" fill="#d3bc5f"/> <path d="m164.51 113.83 55.887 43.794 129.18-28.171-76.291-32.458-108.78 16.836z" fill="url(#a)"/> <path d="m163.62 112.94 55.887 43.794v133.77l-55.887-76.003v-101.56z" fill="url(#c)"/> </g> <g fill="none" stroke-width="2.511"> <path d="m223.09 105.36 68.254 36.476" stroke="#784421"/> <path d="m164.57 113.83 55.872 43.631 129.64-27.936" stroke="#c7a768"/> </g> <path d="m303.9 139.45 0.1961 10.79-3.845-6.5132-3.0605 7.5333-2.9036-6.2778-3.688 6.5132-1.7264-3.7667-3.9236 6.5917-1.5695-5.0222-4.6297 7.5333-0.3531-11.849 25.503-5.5323z" fill="#34dbdb" fill-opacity=".365" opacity=".422" stroke="#fff" stroke-width=".502"/> <g fill="none" stroke-width="2.511"> <path d="m220.13 157.15v134.34" stroke="#c7a768"/> <path d="m165.26 114.83 0.3139 101.39 54.93 75.647 130.26-48.653-0.3139-113.31-76.589-32.644-108.61 17.578z" stroke="#6c5434"/> </g> <path d="m220.4 157.62v133.77l129.18-49.03v-112.91l-129.18 28.171z" fill="url(#b)" stroke-linejoin="round"/> </g> </svg>